<mxfile host="65bd71144e">
    <diagram id="82ernuFNb1GFmVdSAfpx" name="Page-1">
        <mxGraphModel dx="1054" dy="765" grid="0" gridSize="10" guides="1" tooltips="1" connect="1" arrows="1" fold="1" page="0" pageScale="1" pageWidth="850" pageHeight="1100" background="#ffffff" math="0" shadow="0">
            <root>
                <mxCell id="0"/>
                <mxCell id="1" parent="0"/>
                <mxCell id="26" value="" style="rounded=1;whiteSpace=wrap;html=1;fontSize=15;fillColor=#dae8fc;strokeColor=#6c8ebf;" vertex="1" parent="1">
                    <mxGeometry x="610" y="30" width="190" height="610" as="geometry"/>
                </mxCell>
                <mxCell id="25" value="" style="rounded=1;whiteSpace=wrap;html=1;fontSize=15;fillColor=#d5e8d4;strokeColor=#82b366;arcSize=6;" vertex="1" parent="1">
                    <mxGeometry x="20" y="30" width="590" height="610" as="geometry"/>
                </mxCell>
                <mxCell id="5" value="Working&lt;br style=&quot;font-size: 18px;&quot;&gt;Directory" style="ellipse;whiteSpace=wrap;html=1;fontSize=18;fillColor=#f8cecc;strokeColor=#b85450;fontStyle=0;gradientColor=#ea6b66;fontColor=#FFFFFF;" vertex="1" parent="1">
                    <mxGeometry x="40" y="40" width="100" height="70" as="geometry"/>
                </mxCell>
                <mxCell id="6" value="Staging&lt;br style=&quot;font-size: 18px;&quot;&gt;Area" style="ellipse;whiteSpace=wrap;html=1;fontSize=18;fillColor=#e6d0de;strokeColor=#996185;gradientColor=#d5739d;fontColor=#FFFFFF;" vertex="1" parent="1">
                    <mxGeometry x="240" y="40" width="100" height="70" as="geometry"/>
                </mxCell>
                <mxCell id="7" value="Local&lt;br style=&quot;font-size: 18px;&quot;&gt;Repo" style="ellipse;whiteSpace=wrap;html=1;fontSize=18;fillColor=#fff2cc;strokeColor=#d6b656;gradientColor=#ffd966;fontColor=#FFFFFF;" vertex="1" parent="1">
                    <mxGeometry x="440" y="40" width="100" height="70" as="geometry"/>
                </mxCell>
                <mxCell id="8" value="Remote&lt;br style=&quot;font-size: 18px;&quot;&gt;Repo" style="ellipse;whiteSpace=wrap;html=1;fontSize=18;fillColor=#ffcd28;strokeColor=#d79b00;gradientColor=#ffa500;fontColor=#FFFFFF;" vertex="1" parent="1">
                    <mxGeometry x="680" y="40" width="100" height="70" as="geometry"/>
                </mxCell>
                <mxCell id="9" value="" style="endArrow=none;html=1;fontSize=15;entryX=0.5;entryY=1;entryDx=0;entryDy=0;" edge="1" parent="1" target="5">
                    <mxGeometry width="50" height="50" relative="1" as="geometry">
                        <mxPoint x="90" y="610" as="sourcePoint"/>
                        <mxPoint x="120" y="270" as="targetPoint"/>
                    </mxGeometry>
                </mxCell>
                <mxCell id="10" value="" style="endArrow=none;html=1;fontSize=15;entryX=0.5;entryY=1;entryDx=0;entryDy=0;" edge="1" parent="1">
                    <mxGeometry width="50" height="50" relative="1" as="geometry">
                        <mxPoint x="290" y="610" as="sourcePoint"/>
                        <mxPoint x="290" y="110" as="targetPoint"/>
                    </mxGeometry>
                </mxCell>
                <mxCell id="11" value="" style="endArrow=none;html=1;fontSize=15;entryX=0.5;entryY=1;entryDx=0;entryDy=0;" edge="1" parent="1">
                    <mxGeometry width="50" height="50" relative="1" as="geometry">
                        <mxPoint x="490" y="610" as="sourcePoint"/>
                        <mxPoint x="490" y="110" as="targetPoint"/>
                    </mxGeometry>
                </mxCell>
                <mxCell id="12" value="" style="endArrow=none;html=1;fontSize=15;entryX=0.5;entryY=1;entryDx=0;entryDy=0;" edge="1" parent="1">
                    <mxGeometry width="50" height="50" relative="1" as="geometry">
                        <mxPoint x="730" y="610" as="sourcePoint"/>
                        <mxPoint x="730" y="110" as="targetPoint"/>
                    </mxGeometry>
                </mxCell>
                <mxCell id="13" value="git add" style="shape=singleArrow;whiteSpace=wrap;html=1;fontSize=17;arrowWidth=0.530787489149305;arrowSize=0.2638673146565756;fillColor=#f8cecc;fontStyle=0;strokeColor=#b85450;" vertex="1" parent="1">
                    <mxGeometry x="110" y="130" width="160" height="60" as="geometry"/>
                </mxCell>
                <mxCell id="15" value="git commit" style="shape=singleArrow;whiteSpace=wrap;html=1;fontSize=17;arrowWidth=0.530787489149305;arrowSize=0.2638673146565756;fillColor=#e1d5e7;fontStyle=0;strokeColor=#9673a6;" vertex="1" parent="1">
                    <mxGeometry x="310" y="130" width="160" height="60" as="geometry"/>
                </mxCell>
                <mxCell id="16" value="git push" style="shape=singleArrow;whiteSpace=wrap;html=1;fontSize=17;arrowWidth=0.530787489149305;arrowSize=0.2638673146565756;fillColor=#fff2cc;fontStyle=0;strokeColor=#d6b656;" vertex="1" parent="1">
                    <mxGeometry x="530" y="130" width="160" height="60" as="geometry"/>
                </mxCell>
                <mxCell id="18" value="git restore" style="shape=singleArrow;direction=west;whiteSpace=wrap;html=1;fontSize=17;arrowWidth=0.5300472944210706;arrowSize=0.24585803105280934;fillColor=#e1d5e7;fontStyle=0;strokeColor=#9673a6;" vertex="1" parent="1">
                    <mxGeometry x="110" y="200" width="160" height="60" as="geometry"/>
                </mxCell>
                <mxCell id="19" value="git fetch" style="shape=singleArrow;direction=west;whiteSpace=wrap;html=1;fontSize=17;arrowWidth=0.5044062687800477;arrowSize=0.26508880028357706;fillColor=#ffff88;fontStyle=0;strokeColor=#36393d;" vertex="1" parent="1">
                    <mxGeometry x="530" y="290" width="160" height="60" as="geometry"/>
                </mxCell>
                <mxCell id="20" value="git merge" style="shape=singleArrow;direction=west;whiteSpace=wrap;html=1;fontSize=17;arrowWidth=0.5186326768663179;arrowSize=0.17779935201009156;fillColor=#fff2cc;fontStyle=0;strokeColor=#d6b656;" vertex="1" parent="1">
                    <mxGeometry x="110" y="290" width="360" height="60" as="geometry"/>
                </mxCell>
                <mxCell id="21" value="git pull" style="shape=singleArrow;direction=west;whiteSpace=wrap;html=1;fontSize=17;arrowWidth=0.5186326768663179;arrowSize=0.17779935201009156;fillColor=#ffff88;fontStyle=0;strokeColor=#36393d;" vertex="1" parent="1">
                    <mxGeometry x="110" y="360" width="580" height="60" as="geometry"/>
                </mxCell>
                <mxCell id="22" value="git checkout" style="shape=singleArrow;direction=west;whiteSpace=wrap;html=1;fontSize=17;arrowWidth=0.5186326768663179;arrowSize=0.17779935201009156;fillColor=#fff2cc;fontStyle=0;strokeColor=#d6b656;" vertex="1" parent="1">
                    <mxGeometry x="110" y="468" width="360" height="60" as="geometry"/>
                </mxCell>
                <mxCell id="24" value="git diff" style="shape=doubleArrow;whiteSpace=wrap;html=1;fontSize=17;arrowWidth=0.4591451009114621;arrowSize=0.23886731465657557;fillColor=#f8cecc;fontStyle=0;strokeColor=#b85450;" vertex="1" parent="1">
                    <mxGeometry x="110" y="550" width="160" height="60" as="geometry"/>
                </mxCell>
                <mxCell id="27" value="Remote" style="text;html=1;strokeColor=none;fillColor=none;align=center;verticalAlign=middle;whiteSpace=wrap;rounded=0;fontSize=18;fontStyle=1" vertex="1" parent="1">
                    <mxGeometry x="620" y="600" width="60" height="30" as="geometry"/>
                </mxCell>
                <mxCell id="28" value="Local" style="text;html=1;strokeColor=none;fillColor=none;align=center;verticalAlign=middle;whiteSpace=wrap;rounded=0;fontSize=18;fontStyle=1" vertex="1" parent="1">
                    <mxGeometry x="540" y="600" width="60" height="30" as="geometry"/>
                </mxCell>
                <mxCell id="29" value="git clone" style="shape=singleArrow;direction=west;whiteSpace=wrap;html=1;fontSize=17;arrowWidth=0.5044062687800477;arrowSize=0.26508880028357706;fillColor=#ffff88;fontStyle=0;strokeColor=#36393d;" vertex="1" parent="1">
                    <mxGeometry x="530" y="468" width="160" height="60" as="geometry"/>
                </mxCell>
            </root>
        </mxGraphModel>
    </diagram>
</mxfile>